<?xml version="1.0" standalone="no"?>
<!DOCTYPE svg PUBLIC "-//W3C//DTD SVG 20010904//EN"
 "http://www.w3.org/TR/2001/REC-SVG-20010904/DTD/svg10.dtd">
<svg version="1.0" xmlns="http://www.w3.org/2000/svg"
 width="3200.000000pt" height="3200.000000pt" viewBox="0 0 3200.000000 3200.000000"
 preserveAspectRatio="xMidYMid meet">

<g transform="translate(0.000000,3200.000000) scale(0.100000,-0.100000)"
fill="#000000" stroke="none">
<path d="M19290 21123 c-107 -1 -2326 -7 -4930 -13 -3013 -7 -4754 -15 -4786
-21 -66 -13 -136 -57 -169 -107 -14 -21 -112 -236 -219 -478 -107 -241 -744
-1685 -1416 -3209 -672 -1523 -1464 -3319 -1760 -3990 -296 -671 -543 -1240
-550 -1264 -31 -118 42 -259 163 -311 l52 -23 4140 -5 c4604 -5 4209 -10 4364
63 143 68 255 166 328 287 18 29 134 280 259 558 124 278 371 829 549 1225
177 396 682 1521 1120 2500 439 979 808 1802 822 1829 51 102 160 192 276 228
59 18 144 20 1939 45 l1877 25 30 -21 c39 -28 55 -82 37 -125 -10 -23 -527
-437 -2098 -1678 -1147 -906 -2088 -1655 -2092 -1663 -3 -9 -6 -35 -6 -57 0
-30 7 -46 29 -69 l29 -29 204 0 c112 0 808 7 1548 15 740 8 1387 15 1438 15
94 0 94 0 128 -34 24 -24 34 -43 34 -65 0 -58 -23 -83 -131 -146 -57 -33
-2813 -1615 -6124 -3516 -5550 -3186 -6021 -3459 -6038 -3493 -15 -30 -17 -42
-8 -69 17 -51 55 -82 99 -81 28 0 2018 977 8577 4208 4697 2314 8546 4215
8553 4224 34 45 24 122 -20 155 l-28 21 -1981 -16 c-1104 -9 -1991 -13 -2004
-8 -58 22 -85 113 -47 159 9 12 1417 1087 3127 2389 2456 1870 3114 2375 3127
2403 21 41 11 94 -23 125 -21 19 -107 19 -4123 19 -2255 0 -4189 0 -4296 -2z
m-5253 -2678 c68 -20 143 -88 173 -156 18 -43 21 -66 18 -123 -4 -68 -26 -119
-552 -1316 -301 -685 -650 -1479 -776 -1765 -250 -570 -260 -587 -359 -634
l-56 -26 -1330 0 -1330 0 -46 21 c-55 26 -111 80 -141 137 -17 32 -22 59 -23
117 0 72 3 82 81 260 377 856 1378 3131 1422 3233 30 70 71 146 90 168 33 38
88 73 142 90 14 4 613 8 1331 8 1137 1 1312 -1 1356 -14z"/>
</g>
</svg>
