<svg width="17" height="18" viewBox="0 0 17 18" fill="none" xmlns="http://www.w3.org/2000/svg">
<g clip-path="url(#clip0_611_58)">
<path d="M8.07031 17.0845C3.65625 17.0845 0 13.436 0 9.01416C0 4.6001 3.64844 0.943848 8.0625 0.943848C12.4844 0.943848 16.1406 4.6001 16.1406 9.01416C16.1406 13.436 12.4844 17.0845 8.07031 17.0845ZM8.07031 15.4985C11.6641 15.4985 14.5547 12.6079 14.5547 9.01416C14.5547 5.42041 11.6562 2.5376 8.0625 2.5376C4.46875 2.5376 1.59375 5.42041 1.59375 9.01416C1.59375 12.6079 4.47656 15.4985 8.07031 15.4985ZM8.07031 5.01416C8.46875 5.01416 8.75781 5.29541 8.75781 5.68604V9.38135L8.69531 10.9907L9.40625 10.1001L10.2812 9.19385C10.3906 9.06104 10.5625 8.99072 10.75 8.99072C11.1172 8.99072 11.3906 9.25635 11.3906 9.61572C11.3906 9.80322 11.3281 9.95947 11.2031 10.0845L8.625 12.6938C8.45312 12.8657 8.28906 12.9517 8.07031 12.9517C7.85938 12.9517 7.69531 12.8735 7.52344 12.6938L4.94531 10.0845C4.82031 9.95947 4.75781 9.80322 4.75781 9.61572C4.75781 9.25635 5.03125 8.99072 5.39844 8.99072C5.58594 8.99072 5.75 9.06885 5.86719 9.19385L6.74219 10.1079L7.45312 10.9829L7.38281 9.38135V5.68604C7.38281 5.29541 7.67969 5.01416 8.07031 5.01416Z" fill="white"/>
</g>
<defs>
<clipPath id="clip0_611_58">
<rect width="17" height="18" fill="white"/>
</clipPath>
</defs>
</svg>
