<svg width="12" height="12" viewBox="0 0 12 12" fill="none" xmlns="http://www.w3.org/2000/svg">
<path d="M1.50004 4.869C1.49888 4.94495 1.52081 5.01947 1.56293 5.08268C1.60505 5.14589 1.66538 5.19483 1.73592 5.223L5.33629 6.66337L6.77667 10.2641C6.80449 10.3338 6.85256 10.3935 6.91466 10.4355C6.97676 10.4776 7.05005 10.5 7.12504 10.5H7.13104C7.207 10.4988 7.28079 10.4746 7.34267 10.4305C7.40454 10.3864 7.45158 10.3246 7.47754 10.2532L10.4775 2.00325C10.5021 1.93613 10.507 1.8634 10.4916 1.79361C10.4762 1.72382 10.4412 1.65988 10.3906 1.60933C10.3401 1.55877 10.2762 1.52371 10.2064 1.50826C10.1367 1.49281 10.0639 1.49762 9.9968 1.52212L1.74679 4.52212C1.67538 4.54816 1.61356 4.59526 1.5695 4.6572C1.52544 4.71914 1.50122 4.793 1.50004 4.869Z" fill="#434750"/>
</svg>
