<svg width="35" height="36" viewBox="0 0 35 36" fill="none" xmlns="http://www.w3.org/2000/svg">
<path d="M17.5747 35.5745C27.1986 35.5745 35.0002 27.7728 35.0002 18.1489C35.0002 8.52507 27.1986 0.723389 17.5747 0.723389C7.95085 0.723389 0.14917 8.52507 0.14917 18.1489C0.14917 27.7728 7.95085 35.5745 17.5747 35.5745Z" fill="url(#paint0_linear_653_12)"/>
<path d="M17.5749 32.5439C25.5251 32.5439 31.97 26.099 31.97 18.1489C31.97 10.1987 25.5251 3.75378 17.5749 3.75378C9.6247 3.75378 3.17981 10.1987 3.17981 18.1489C3.17981 26.099 9.6247 32.5439 17.5749 32.5439Z" fill="url(#paint1_linear_653_12)"/>
<path d="M17.575 31.028C24.6879 31.028 30.454 25.2619 30.454 18.1489C30.454 11.036 24.6879 5.2699 17.575 5.2699C10.4621 5.2699 4.69592 11.036 4.69592 18.1489C4.69592 25.2619 10.4621 31.028 17.575 31.028Z" fill="url(#paint2_linear_653_12)"/>
<path d="M17.5747 35.5745C27.1986 35.5745 35.0002 27.7728 35.0002 18.1489C35.0002 8.52507 27.1986 0.723389 17.5747 0.723389C7.95085 0.723389 0.14917 8.52507 0.14917 18.1489C0.14917 27.7728 7.95085 35.5745 17.5747 35.5745Z" fill="url(#paint3_radial_653_12)"/>
<path d="M17.5749 32.5439C25.5251 32.5439 31.97 26.099 31.97 18.1489C31.97 10.1987 25.5251 3.75378 17.5749 3.75378C9.6247 3.75378 3.17981 10.1987 3.17981 18.1489C3.17981 26.099 9.6247 32.5439 17.5749 32.5439Z" fill="url(#paint4_radial_653_12)"/>
<path d="M17.5749 32.5439C25.5251 32.5439 31.97 26.099 31.97 18.1489C31.97 10.1987 25.5251 3.75378 17.5749 3.75378C9.6247 3.75378 3.17981 10.1987 3.17981 18.1489C3.17981 26.099 9.6247 32.5439 17.5749 32.5439Z" fill="url(#paint5_radial_653_12)"/>
<path d="M23.8317 18.5799C23.3517 17.9574 22.7244 17.4584 21.9576 17.0861C22.6689 16.6615 23.2392 16.1451 23.6527 15.5416C24.1849 14.7685 24.4558 13.9337 24.4558 13.0592C24.4558 11.2881 23.8095 9.8735 22.5327 8.8549C21.2781 7.85372 19.5434 7.34521 17.3779 7.34521C16.1644 7.34521 15.0334 7.57491 14.0132 8.02798C12.9819 8.48738 12.1629 9.13687 11.5815 9.95587C10.9922 10.786 10.6912 11.7428 10.6912 12.7994V13.1162H15.6971V12.7994C15.6971 12.397 15.8666 12.0659 16.2183 11.7903C16.5922 11.4957 17.0231 11.3531 17.5331 11.3531C18.1525 11.3531 18.6294 11.5194 18.9541 11.8489C19.2852 12.1832 19.4468 12.6077 19.4468 13.1511C19.4468 14.5721 18.7688 15.2326 17.3129 15.2326H14.932V19.1233H17.3763C18.1351 19.1233 18.7308 19.2991 19.1458 19.6461C19.5434 19.9771 19.7446 20.5775 19.7446 21.4266C19.7446 22.0064 19.5529 22.4674 19.1585 22.8365C18.7577 23.2104 18.2254 23.3925 17.5331 23.3925C16.9264 23.3925 16.4322 23.212 16.0219 22.8397C15.6195 22.4753 15.4247 22.0587 15.4247 21.5692V21.2524H10.3918V21.5692C10.3918 22.6908 10.6849 23.7078 11.2615 24.5902C11.8382 25.4725 12.6936 26.1711 13.8041 26.6654C14.8971 27.1533 16.0995 27.4004 17.3763 27.4004C19.5498 27.4004 21.3351 26.8666 22.6848 25.8163C24.055 24.7454 24.7521 23.3007 24.7521 21.5185C24.7537 20.3605 24.4432 19.372 23.8317 18.5799Z" fill="url(#paint6_linear_653_12)"/>
<path d="M23.8317 18.5799C23.3517 17.9574 22.7244 17.4584 21.9576 17.0861C22.6689 16.6615 23.2392 16.1451 23.6527 15.5416C24.1849 14.7685 24.4558 13.9337 24.4558 13.0592C24.4558 11.2881 23.8095 9.8735 22.5327 8.8549C21.2781 7.85372 19.5434 7.34521 17.3779 7.34521C16.1644 7.34521 15.0334 7.57491 14.0132 8.02798C12.9819 8.48738 12.1629 9.13687 11.5815 9.95587C10.9922 10.786 10.6912 11.7428 10.6912 12.7994V13.1162H15.6971V12.7994C15.6971 12.397 15.8666 12.0659 16.2183 11.7903C16.5922 11.4957 17.0231 11.3531 17.5331 11.3531C18.1525 11.3531 18.6294 11.5194 18.9541 11.8489C19.2852 12.1832 19.4468 12.6077 19.4468 13.1511C19.4468 14.5721 18.7688 15.2326 17.3129 15.2326H14.932V19.1233H17.3763C18.1351 19.1233 18.7308 19.2991 19.1458 19.6461C19.5434 19.9771 19.7446 20.5775 19.7446 21.4266C19.7446 22.0064 19.5529 22.4674 19.1585 22.8365C18.7577 23.2104 18.2254 23.3925 17.5331 23.3925C16.9264 23.3925 16.4322 23.212 16.0219 22.8397C15.6195 22.4753 15.4247 22.0587 15.4247 21.5692V21.2524H10.3918V21.5692C10.3918 22.6908 10.6849 23.7078 11.2615 24.5902C11.8382 25.4725 12.6936 26.1711 13.8041 26.6654C14.8971 27.1533 16.0995 27.4004 17.3763 27.4004C19.5498 27.4004 21.3351 26.8666 22.6848 25.8163C24.055 24.7454 24.7521 23.3007 24.7521 21.5185C24.7537 20.3605 24.4432 19.372 23.8317 18.5799Z" fill="black" fill-opacity="0.2"/>
<defs>
<linearGradient id="paint0_linear_653_12" x1="-1.30349" y1="-6.87098" x2="30.5536" y2="35.3511" gradientUnits="userSpaceOnUse">
<stop stop-color="#FDDCCB"/>
<stop offset="0.3" stop-color="#F1994E"/>
<stop offset="0.369" stop-color="#EC9449"/>
<stop offset="0.454" stop-color="#DF843D"/>
<stop offset="0.549" stop-color="#CA6B27"/>
<stop offset="0.6" stop-color="#BB5A19"/>
<stop offset="0.726" stop-color="#AA4D13"/>
<stop offset="0.976" stop-color="#7E2C02"/>
<stop offset="1" stop-color="#792900"/>
</linearGradient>
<linearGradient id="paint1_linear_653_12" x1="28.3233" y1="34.9471" x2="5.93938" y2="-0.0354768" gradientUnits="userSpaceOnUse">
<stop stop-color="#FDDCCB"/>
<stop offset="0.3" stop-color="#F1994E"/>
<stop offset="0.369" stop-color="#EC9449"/>
<stop offset="0.454" stop-color="#DF843D"/>
<stop offset="0.549" stop-color="#CA6B27"/>
<stop offset="0.6" stop-color="#BB5A19"/>
<stop offset="0.726" stop-color="#AA4D13"/>
<stop offset="0.976" stop-color="#7E2C02"/>
<stop offset="1" stop-color="#792900"/>
</linearGradient>
<linearGradient id="paint2_linear_653_12" x1="8.72281" y1="9.36648" x2="34.0009" y2="34.4434" gradientUnits="userSpaceOnUse">
<stop stop-color="#FDDCCB"/>
<stop offset="0.3" stop-color="#F1994E"/>
<stop offset="0.394" stop-color="#EC9449"/>
<stop offset="0.512" stop-color="#DF843D"/>
<stop offset="0.641" stop-color="#CA6B27"/>
<stop offset="0.712" stop-color="#BB5A19"/>
<stop offset="0.803" stop-color="#AA4D13"/>
<stop offset="0.983" stop-color="#7E2C02"/>
<stop offset="1" stop-color="#792900"/>
</linearGradient>
<radialGradient id="paint3_radial_653_12" cx="0" cy="0" r="1" gradientUnits="userSpaceOnUse" gradientTransform="translate(19.4931 20.2923) scale(24.174)">
<stop stop-color="#FFD1AD" stop-opacity="0"/>
<stop offset="0.733" stop-color="#FFD1AD" stop-opacity="0"/>
<stop offset="0.843" stop-color="#FFEEE0"/>
<stop offset="0.928" stop-color="#FFD1AD" stop-opacity="0"/>
</radialGradient>
<radialGradient id="paint4_radial_653_12" cx="0" cy="0" r="1" gradientUnits="userSpaceOnUse" gradientTransform="translate(18.2149 15.234) scale(21.6758)">
<stop stop-color="#FFD1AD" stop-opacity="0"/>
<stop offset="0.733" stop-color="#FFD1AD" stop-opacity="0"/>
<stop offset="0.843" stop-color="#FFEEE0"/>
<stop offset="0.928" stop-color="#FFD1AD" stop-opacity="0"/>
</radialGradient>
<radialGradient id="paint5_radial_653_12" cx="0" cy="0" r="1" gradientUnits="userSpaceOnUse" gradientTransform="translate(18.2149 15.234) scale(21.6758)">
<stop stop-color="#FFD1AD" stop-opacity="0"/>
<stop offset="0.733" stop-color="#FFD1AD" stop-opacity="0"/>
<stop offset="0.843" stop-color="#FFEEE0"/>
<stop offset="0.928" stop-color="#FFD1AD" stop-opacity="0"/>
</radialGradient>
<linearGradient id="paint6_linear_653_12" x1="-5.90895" y1="-8.634" x2="42.4913" y2="45.1586" gradientUnits="userSpaceOnUse">
<stop stop-color="#FDDCCB"/>
<stop offset="0.249" stop-color="#F1994E"/>
<stop offset="0.302" stop-color="#EC9449"/>
<stop offset="0.367" stop-color="#DF843D"/>
<stop offset="0.439" stop-color="#CA6B27"/>
<stop offset="0.478" stop-color="#BB5A19"/>
<stop offset="0.511" stop-color="#B45516"/>
<stop offset="0.681" stop-color="#943D0A"/>
<stop offset="0.824" stop-color="#802E03"/>
<stop offset="0.922" stop-color="#792900"/>
</linearGradient>
</defs>
</svg>
